<?xml version="1.0" ?><svg enable-background="new 0 0 512 512" id="Layer_1" version="1.1" viewBox="0 0 512 512" xml:space="preserve" xmlns="http://www.w3.org/2000/svg" xmlns:xlink="http://www.w3.org/1999/xlink"><g><g><linearGradient gradientUnits="userSpaceOnUse" id="SVGID_1_" x1="-0.0000027" x2="512" y1="256" y2="256"><stop offset="0" style="stop-color:#8DC63F"/><stop offset="1" style="stop-color:#76B83F"/></linearGradient><circle cx="256" cy="256" fill="url(#SVGID_1_)" r="256"/><linearGradient gradientUnits="userSpaceOnUse" id="SVGID_2_" x1="42.6666641" x2="469.3333435" y1="256.0005188" y2="256.0005188"><stop offset="0" style="stop-color:#76B83F"/><stop offset="1" style="stop-color:#8DC63F"/></linearGradient><path d="M256,469.3338623c-117.631012,0-213.3333435-95.7023926-213.3333435-213.3333435    c0-117.6314545,95.7023239-213.333313,213.3333435-213.333313c117.6362,0,213.3333435,95.7018661,213.3333435,213.333313    C469.3333435,373.6314697,373.6362,469.3338623,256,469.3338623z" fill="url(#SVGID_2_)"/></g><g><rect height="136.1322632" opacity="0.3" width="41.9583244" x="144" y="246.3072052"/><rect height="84.6154709" opacity="0.3" width="41.9578667" x="210.014328" y="297.8240051"/><rect height="173.4282684" opacity="0.3" width="41.9578667" x="276.0281982" y="209.0112"/><rect height="236.8789368" opacity="0.3" width="41.9579468" x="342.0420532" y="145.5605316"/></g><g><rect fill="#FFFFFF" height="136.1322632" width="41.9583282" x="136" y="238.3072052"/><rect fill="#FFFFFF" height="84.6154709" width="41.9578667" x="202.014328" y="289.8240051"/><rect fill="#FFFFFF" height="173.4282684" width="41.9578667" x="268.0281982" y="201.0112"/><rect fill="#FFFFFF" height="236.8789368" width="41.9579468" x="334.0420532" y="137.5605316"/></g></g></svg>